<svg width="196" height="196" viewBox="0 0 196 196" fill="none" xmlns="http://www.w3.org/2000/svg">
<g clip-path="url(#clip0_3_15)">
<g clip-path="url(#clip1_3_15)">
<g filter="url(#filter0_dddddd_3_15)">
<circle cx="98" cy="98" r="81.1562" fill="#224B65"/>
</g>
<path d="M168.228 106.759C152.071 84.7611 125.337 59.0977 122.843 55.6225C120.349 52.1473 122.073 50.7837 118.853 48.672C118.853 48.672 120.349 24.8413 118.853 27.8202C117.357 30.7991 117.357 32.2884 114.364 35.7636C111.871 39.2389 107.13 44.6812 104.39 48.672C61.7774 47.2011 42.3525 104.246 41.7266 144.703H129.845C104.426 137.912 98.9751 101.839 105.886 102.29C112.797 102.742 116.932 109.605 122.843 112.22C128.754 114.835 143.291 119.17 144.289 119.17C144.289 119.17 146.087 126.123 148.279 126.617C150.47 127.112 153.894 125.127 157.256 123.639C160.618 122.15 160.136 124.273 162.243 121.653C166.207 120.237 168.314 119.375 166.732 114.702C168.581 111.088 169.507 109.107 168.228 106.759Z" fill="#E5E39F"/>
</g>
</g>
<defs>
<filter id="filter0_dddddd_3_15" x="-13.7812" y="-15.3125" width="223.562" height="223.562" filterUnits="userSpaceOnUse" color-interpolation-filters="sRGB">
<feFlood flood-opacity="0" result="BackgroundImageFix"/>
<feColorMatrix in="SourceAlpha" type="matrix" values="0 0 0 0 0 0 0 0 0 0 0 0 0 0 0 0 0 0 127 0" result="hardAlpha"/>
<feOffset dy="-0.0423736"/>
<feGaussianBlur stdDeviation="0.423736"/>
<feColorMatrix type="matrix" values="0 0 0 0 0 0 0 0 0 0 0 0 0 0 0 0 0 0 0.07 0"/>
<feBlend mode="normal" in2="BackgroundImageFix" result="effect1_dropShadow_3_15"/>
<feColorMatrix in="SourceAlpha" type="matrix" values="0 0 0 0 0 0 0 0 0 0 0 0 0 0 0 0 0 0 127 0" result="hardAlpha"/>
<feOffset dy="-0.10183"/>
<feGaussianBlur stdDeviation="1.0183"/>
<feColorMatrix type="matrix" values="0 0 0 0 0 0 0 0 0 0 0 0 0 0 0 0 0 0 0.0503198 0"/>
<feBlend mode="normal" in2="effect1_dropShadow_3_15" result="effect2_dropShadow_3_15"/>
<feColorMatrix in="SourceAlpha" type="matrix" values="0 0 0 0 0 0 0 0 0 0 0 0 0 0 0 0 0 0 127 0" result="hardAlpha"/>
<feOffset dy="-0.191736"/>
<feGaussianBlur stdDeviation="1.91736"/>
<feColorMatrix type="matrix" values="0 0 0 0 0 0 0 0 0 0 0 0 0 0 0 0 0 0 0.0417275 0"/>
<feBlend mode="normal" in2="effect2_dropShadow_3_15" result="effect3_dropShadow_3_15"/>
<feColorMatrix in="SourceAlpha" type="matrix" values="0 0 0 0 0 0 0 0 0 0 0 0 0 0 0 0 0 0 127 0" result="hardAlpha"/>
<feOffset dy="-0.342025"/>
<feGaussianBlur stdDeviation="3.42025"/>
<feColorMatrix type="matrix" values="0 0 0 0 0 0 0 0 0 0 0 0 0 0 0 0 0 0 0.035 0"/>
<feBlend mode="normal" in2="effect3_dropShadow_3_15" result="effect4_dropShadow_3_15"/>
<feColorMatrix in="SourceAlpha" type="matrix" values="0 0 0 0 0 0 0 0 0 0 0 0 0 0 0 0 0 0 127 0" result="hardAlpha"/>
<feOffset dy="-0.63972"/>
<feGaussianBlur stdDeviation="6.3972"/>
<feColorMatrix type="matrix" values="0 0 0 0 0 0 0 0 0 0 0 0 0 0 0 0 0 0 0.0282725 0"/>
<feBlend mode="normal" in2="effect4_dropShadow_3_15" result="effect5_dropShadow_3_15"/>
<feColorMatrix in="SourceAlpha" type="matrix" values="0 0 0 0 0 0 0 0 0 0 0 0 0 0 0 0 0 0 127 0" result="hardAlpha"/>
<feOffset dy="-1.53125"/>
<feGaussianBlur stdDeviation="15.3125"/>
<feColorMatrix type="matrix" values="0 0 0 0 0 0 0 0 0 0 0 0 0 0 0 0 0 0 0.0196802 0"/>
<feBlend mode="normal" in2="effect5_dropShadow_3_15" result="effect6_dropShadow_3_15"/>
<feBlend mode="normal" in="SourceGraphic" in2="effect6_dropShadow_3_15" result="shape"/>
</filter>
<clipPath id="clip0_3_15">
<rect width="196" height="196" fill="white"/>
</clipPath>
<clipPath id="clip1_3_15">
<rect width="196" height="196" fill="white"/>
</clipPath>
</defs>
</svg>
