<svg width="341" height="78" viewBox="0 0 341 78" fill="none" xmlns="http://www.w3.org/2000/svg">
<path d="M87.558 56V28H105.558V32.8H92.838V39.48H104.438V44.28H92.838V51.2H105.798V56H87.558ZM124.746 64V53.72H124.026C123.76 54.1733 123.373 54.6267 122.866 55.08C122.36 55.5067 121.693 55.8533 120.866 56.12C120.066 56.4133 119.066 56.56 117.866 56.56C116.266 56.56 114.786 56.1733 113.426 55.4C112.066 54.6 110.973 53.44 110.146 51.92C109.32 50.4 108.906 48.56 108.906 46.4V45.76C108.906 43.6 109.32 41.76 110.146 40.24C110.973 38.72 112.066 37.5733 113.426 36.8C114.813 36 116.293 35.6 117.866 35.6C119.68 35.6 121.053 35.9067 121.986 36.52C122.946 37.1067 123.653 37.7867 124.106 38.56H124.826V36.16H129.786V64H124.746ZM119.386 52.16C120.96 52.16 122.253 51.6667 123.266 50.68C124.306 49.6667 124.826 48.2 124.826 46.28V45.88C124.826 43.96 124.306 42.5067 123.266 41.52C122.226 40.5067 120.933 40 119.386 40C117.84 40 116.546 40.5067 115.506 41.52C114.466 42.5067 113.946 43.96 113.946 45.88V46.28C113.946 48.2 114.466 49.6667 115.506 50.68C116.546 51.6667 117.84 52.16 119.386 52.16ZM142.934 56.32C141.388 56.32 140.028 55.9733 138.854 55.28C137.708 54.56 136.814 53.5733 136.174 52.32C135.534 51.0667 135.214 49.6267 135.214 48V36.16H140.254V47.6C140.254 49.0933 140.614 50.2133 141.334 50.96C142.081 51.7067 143.134 52.08 144.494 52.08C146.041 52.08 147.241 51.5733 148.094 50.56C148.948 49.52 149.374 48.08 149.374 46.24V36.16H154.414V56H149.454V53.4H148.734C148.414 54.0667 147.814 54.72 146.934 55.36C146.054 56 144.721 56.32 142.934 56.32ZM160.023 56V36.16H165.063V56H160.023ZM162.543 33.84C161.636 33.84 160.863 33.5467 160.223 32.96C159.609 32.3733 159.303 31.6 159.303 30.64C159.303 29.68 159.609 28.9067 160.223 28.32C160.863 27.7333 161.636 27.44 162.543 27.44C163.476 27.44 164.249 27.7333 164.863 28.32C165.476 28.9067 165.783 29.68 165.783 30.64C165.783 31.6 165.476 32.3733 164.863 32.96C164.249 33.5467 163.476 33.84 162.543 33.84Z" fill="#E09E3D"/>
<path d="M170.488 56V28H180.288L185.128 52.4H185.848L190.688 28H200.488V56H195.368V31.88H194.648L189.848 56H181.128L176.328 31.88H175.608V56H170.488ZM212.081 56.56C210.668 56.56 209.401 56.32 208.281 55.84C207.161 55.3333 206.268 54.6133 205.601 53.68C204.961 52.72 204.641 51.56 204.641 50.2C204.641 48.84 204.961 47.7067 205.601 46.8C206.268 45.8667 207.174 45.1733 208.321 44.72C209.494 44.24 210.828 44 212.321 44H217.761V42.88C217.761 41.9467 217.468 41.1867 216.881 40.6C216.294 39.9867 215.361 39.68 214.081 39.68C212.828 39.68 211.894 39.9733 211.281 40.56C210.668 41.12 210.268 41.8533 210.081 42.76L205.441 41.2C205.761 40.1867 206.268 39.2667 206.961 38.44C207.681 37.5867 208.628 36.9067 209.801 36.4C211.001 35.8667 212.454 35.6 214.161 35.6C216.774 35.6 218.841 36.2533 220.361 37.56C221.881 38.8667 222.641 40.76 222.641 43.24V50.64C222.641 51.44 223.014 51.84 223.761 51.84H225.361V56H222.001C221.014 56 220.201 55.76 219.561 55.28C218.921 54.8 218.601 54.16 218.601 53.36V53.32H217.841C217.734 53.64 217.494 54.0667 217.121 54.6C216.748 55.1067 216.161 55.56 215.361 55.96C214.561 56.36 213.468 56.56 212.081 56.56ZM212.961 52.48C214.374 52.48 215.521 52.0933 216.401 51.32C217.308 50.52 217.761 49.4667 217.761 48.16V47.76H212.681C211.748 47.76 211.014 47.96 210.481 48.36C209.948 48.76 209.681 49.32 209.681 50.04C209.681 50.76 209.961 51.3467 210.521 51.8C211.081 52.2533 211.894 52.48 212.961 52.48ZM229.046 56V36.16H234.006V38.76H234.726C235.046 38.0667 235.646 37.4133 236.526 36.8C237.406 36.16 238.739 35.84 240.526 35.84C242.073 35.84 243.419 36.2 244.566 36.92C245.739 37.6133 246.646 38.5867 247.286 39.84C247.926 41.0667 248.246 42.5067 248.246 44.16V56H243.206V44.56C243.206 43.0667 242.833 41.9467 242.086 41.2C241.366 40.4533 240.326 40.08 238.966 40.08C237.419 40.08 236.219 40.6 235.366 41.64C234.513 42.6533 234.086 44.08 234.086 45.92V56H229.046ZM259.855 56.56C258.441 56.56 257.175 56.32 256.055 55.84C254.935 55.3333 254.041 54.6133 253.375 53.68C252.735 52.72 252.415 51.56 252.415 50.2C252.415 48.84 252.735 47.7067 253.375 46.8C254.041 45.8667 254.948 45.1733 256.095 44.72C257.268 44.24 258.601 44 260.095 44H265.535V42.88C265.535 41.9467 265.241 41.1867 264.655 40.6C264.068 39.9867 263.135 39.68 261.855 39.68C260.601 39.68 259.668 39.9733 259.055 40.56C258.441 41.12 258.041 41.8533 257.855 42.76L253.215 41.2C253.535 40.1867 254.041 39.2667 254.735 38.44C255.455 37.5867 256.401 36.9067 257.575 36.4C258.775 35.8667 260.228 35.6 261.935 35.6C264.548 35.6 266.615 36.2533 268.135 37.56C269.655 38.8667 270.415 40.76 270.415 43.24V50.64C270.415 51.44 270.788 51.84 271.535 51.84H273.135V56H269.775C268.788 56 267.975 55.76 267.335 55.28C266.695 54.8 266.375 54.16 266.375 53.36V53.32H265.615C265.508 53.64 265.268 54.0667 264.895 54.6C264.521 55.1067 263.935 55.56 263.135 55.96C262.335 56.36 261.241 56.56 259.855 56.56ZM260.735 52.48C262.148 52.48 263.295 52.0933 264.175 51.32C265.081 50.52 265.535 49.4667 265.535 48.16V47.76H260.455C259.521 47.76 258.788 47.96 258.255 48.36C257.721 48.76 257.455 49.32 257.455 50.04C257.455 50.76 257.735 51.3467 258.295 51.8C258.855 52.2533 259.668 52.48 260.735 52.48ZM275.469 46.16V45.52C275.469 43.44 275.882 41.6667 276.709 40.2C277.536 38.7067 278.629 37.5733 279.989 36.8C281.376 36 282.882 35.6 284.509 35.6C286.322 35.6 287.696 35.92 288.629 36.56C289.562 37.2 290.242 37.8667 290.669 38.56H291.389V36.16H296.349V59.52C296.349 60.88 295.949 61.96 295.149 62.76C294.349 63.5867 293.282 64 291.949 64H278.669V59.6H290.189C290.936 59.6 291.309 59.2 291.309 58.4V53.24H290.589C290.322 53.6667 289.949 54.1067 289.469 54.56C288.989 54.9867 288.349 55.3467 287.549 55.64C286.749 55.9333 285.736 56.08 284.509 56.08C282.882 56.08 281.376 55.6933 279.989 54.92C278.629 54.12 277.536 52.9867 276.709 51.52C275.882 50.0267 275.469 48.24 275.469 46.16ZM285.949 51.68C287.496 51.68 288.789 51.1867 289.829 50.2C290.869 49.2133 291.389 47.8267 291.389 46.04V45.64C291.389 43.8267 290.869 42.44 289.829 41.48C288.816 40.4933 287.522 40 285.949 40C284.402 40 283.109 40.4933 282.069 41.48C281.029 42.44 280.509 43.8267 280.509 45.64V46.04C280.509 47.8267 281.029 49.2133 282.069 50.2C283.109 51.1867 284.402 51.68 285.949 51.68ZM310.977 56.56C309.003 56.56 307.257 56.1467 305.737 55.32C304.243 54.4667 303.07 53.28 302.217 51.76C301.39 50.2133 300.977 48.4 300.977 46.32V45.84C300.977 43.76 301.39 41.96 302.217 40.44C303.043 38.8933 304.203 37.7067 305.697 36.88C307.19 36.0267 308.923 35.6 310.897 35.6C312.843 35.6 314.537 36.04 315.977 36.92C317.417 37.7733 318.537 38.9733 319.337 40.52C320.137 42.04 320.537 43.8133 320.537 45.84V47.56H306.097C306.15 48.92 306.657 50.0267 307.617 50.88C308.577 51.7333 309.75 52.16 311.137 52.16C312.55 52.16 313.59 51.8533 314.257 51.24C314.923 50.6267 315.43 49.9467 315.777 49.2L319.897 51.36C319.523 52.0533 318.977 52.8133 318.257 53.64C317.563 54.44 316.63 55.1333 315.457 55.72C314.283 56.28 312.79 56.56 310.977 56.56ZM306.137 43.8H315.417C315.31 42.6533 314.843 41.7333 314.017 41.04C313.217 40.3467 312.163 40 310.857 40C309.497 40 308.417 40.3467 307.617 41.04C306.817 41.7333 306.323 42.6533 306.137 43.8ZM325.023 56V36.16H329.983V38.4H330.703C330.996 37.6 331.476 37.0133 332.143 36.64C332.836 36.2667 333.636 36.08 334.543 36.08H336.943V40.56H334.463C333.183 40.56 332.129 40.9067 331.303 41.6C330.476 42.2667 330.063 43.3067 330.063 44.72V56H325.023Z" fill="#FFFB95"/>
<path d="M74.6504 46.6494C65.1161 33.692 49.3396 18.5754 47.868 16.5283C46.3965 14.4813 47.4139 13.6781 45.5135 12.4342C45.5135 12.4342 46.3965 -1.60287 45.5135 0.151789C44.6306 1.90645 44.6306 2.7837 42.8647 4.83076C41.3931 6.87782 38.5956 10.0835 36.9785 12.4342C11.8323 11.5678 0.369354 45.1695 0 69H52C37 65 33.7832 43.7512 37.8614 44.0174C41.9395 44.2836 44.3798 48.3257 47.868 49.8662C51.3562 51.4067 59.9348 53.9603 60.5234 53.9603C60.5234 53.9603 61.5845 58.0555 62.878 58.3469C64.1714 58.6382 66.1917 57.4689 68.1755 56.5922C70.1594 55.7156 69.875 56.9658 71.1187 55.4225C73.4581 54.5885 74.7013 54.0808 73.7675 51.3284C74.8588 49.1997 75.405 48.0326 74.6504 46.6494Z" fill="#E5E39F"/>
<path d="M0 71L338 71" stroke="#E5E39F" stroke-width="4"/>
</svg>
